<?xml version="1.0" encoding="UTF-8"?><!DOCTYPE svg PUBLIC "-//W3C//DTD SVG 1.1//EN" "http://www.w3.org/Graphics/SVG/1.1/DTD/svg11.dtd"><svg xmlns="http://www.w3.org/2000/svg"><symbol id="calendar" viewBox="0 0 14 15"><path d="M12 15H2a2 2 0 0 1-2-2V3a2 2 0 0 1 1.999-2 1 1 0 0 1 2 0h6a1 1 0 0 1 2 0H12a2 2 0 0 1 2 2v10a2 2 0 0 1-2 2zM2.999 3a1 1 0 1 1 0 2 1 1 0 0 1 0-2zm8 0a1 1 0 1 1 0 2 1 1 0 0 1 0-2z" fill-rule="evenodd" fill="#168de2"/></symbol><symbol id="cloud" viewBox="0 0 16 12"><path d="M12.285 11.796c-.76 0-1.53-.668-2.118-1.086-.509.754-1.504 1.29-2.44 1.29-.983 0-2.118-.39-2.677-1.374a2.162 2.162 0 0 1-1.907 1.17C1.407 11.796 0 10.294 0 8.44c0-1.36.892-2.318 1.983-2.844-.08-.254-.256-.737-.256-1.02 0-1.403 1.066-2.542 2.381-2.542.366 0 .843.233 1.153.39C5.854 1.077 7.003 0 8.489 0c2.022 0 3.923 1.476 3.317 4.328.028 0 .45-.464.48-.464 2.05 0 3.714 1.775 3.714 3.964-.001 2.192-1.664 3.968-3.715 3.968z" fill-rule="evenodd" fill="#168de2"/></symbol><symbol id="dropdown" viewBox="0 0 6 5"><path d="M6 .833C6 .333 5.7 0 5.25 0H.75C.3 0 0 .333 0 .833a.8.8 0 0 0 .225.584L2.4 4.667c.15.166.375.333.6.333.225 0 .45-.167.6-.417l2.25-3.25C5.925 1.167 6 1 6 .833z" fill-rule="evenodd" fill="#333"/></symbol><symbol id="more" viewBox="0 0 16 4"><path d="M2 4a2 2 0 1 0 0-4 2 2 0 0 0 0 4zm6 0a2 2 0 1 0 0-4 2 2 0 0 0 0 4zm6 0a2 2 0 1 0 0-4 2 2 0 0 0 0 4z" fill-rule="evenodd" fill="#333"/></symbol></svg>